<svg width="1285" height="205" viewBox="0 0 1285 205" fill="none" xmlns="http://www.w3.org/2000/svg">
<path d="M259.079 53.2012L215.254 167.646L174.387 53.2012H128.06L87.1937 167.905L43.3689 53.2012H0L60.1756 201.682H111.943L151.229 98.3269L190.505 201.682H242.282L302.447 53.2012H259.079Z" fill="url(#paint0_linear_2513_4942)" fill-opacity="0.5"/>
<path d="M391.867 50.6807C337.597 50.6807 299.223 72.8609 299.223 127.57C299.223 182.279 338.732 204.212 389.597 204.212C440.463 204.212 472.253 186.317 481.107 148.502H442.51C432.744 163.63 416.393 169.175 389.608 169.175C362.823 169.175 343.291 161.358 338.976 137.659H483.387C483.387 70.0943 442.743 50.6807 391.877 50.6807H391.867ZM340.322 110.169C346.451 89.2489 365.071 83.4448 391.644 83.4448C416.17 83.4448 435.235 89.2371 441.82 110.169H340.322Z" fill="url(#paint1_linear_2513_4942)" fill-opacity="0.5"/>
<path d="M536.936 0H498.105V201.682H536.936V0Z" fill="url(#paint2_linear_2513_4942)" fill-opacity="0.5"/>
<path d="M701.969 76.3947C687.442 59.5005 664.05 50.6826 635.209 50.6826C592.296 50.6826 555.512 70.8496 555.512 127.572C555.512 184.294 592.296 204.214 635.209 204.214C664.05 204.214 687.432 195.396 701.969 178.501V201.694H740.8V0H701.969V76.3829V76.3947ZM648.156 168.165C613.418 168.165 594.565 156.816 594.565 127.572C594.565 98.3277 613.408 86.7313 648.156 86.7313C682.904 86.7313 701.969 98.0805 701.969 127.572C701.969 157.063 682.893 168.165 648.156 168.165Z" fill="url(#paint3_linear_2513_4942)" fill-opacity="0.5"/>
<path d="M848.195 50.6807C793.925 50.6807 755.551 72.8609 755.551 127.57C755.551 182.279 795.06 204.212 845.915 204.212C896.77 204.212 928.57 186.317 937.424 148.502H898.827C889.061 163.63 872.71 169.175 845.926 169.175C819.141 169.175 799.609 161.358 795.293 137.659H939.704C939.704 70.0943 899.06 50.6807 848.195 50.6807ZM796.65 110.169C802.779 89.2489 821.399 83.4448 847.972 83.4448C872.498 83.4448 891.564 89.2371 898.148 110.169H796.65Z" fill="url(#paint4_linear_2513_4942)" fill-opacity="0.5"/>
<path d="M997.092 112.689C1020.71 92.2628 1045.69 86.7177 1067.48 86.7177C1078.84 86.7177 1089.05 88.2364 1101.77 91.7565V55.7078C1092.68 53.1884 1081.56 50.6689 1065.67 50.6689C1040.68 50.6689 1017.07 58.4862 997.092 78.3942V53.1884H958.262V201.681H997.092V112.689Z" fill="url(#paint5_linear_2513_4942)" fill-opacity="0.5"/>
<path d="M1164.66 204.212C1196.23 204.212 1222.33 196.147 1245.95 183.291V201.692H1285V126.816C1284.54 70.6005 1252.77 50.6807 1196.91 50.6807C1168.98 50.6807 1142.18 56.2257 1114.94 66.0561L1128.79 97.5723C1156.26 88.4954 1177.61 86.7294 1195.09 86.7294C1212.58 86.7294 1245.96 89.0016 1245.96 117.233C1228.47 110.676 1207.36 106.649 1184.43 106.649C1141.97 106.649 1103.82 118.752 1103.82 157.32C1103.82 190.849 1127.21 204.212 1164.67 204.212H1164.66ZM1189.19 134.881C1213.94 134.881 1232.33 139.166 1245.95 143.958V155.554C1225.97 165.137 1196.91 172.448 1175.78 172.448C1154.66 172.448 1142.64 171.189 1142.64 155.554C1142.64 139.92 1160.12 134.881 1189.19 134.881Z" fill="url(#paint6_linear_2513_4942)" fill-opacity="0.5"/>
<defs>
<linearGradient id="paint0_linear_2513_4942" x1="151.224" y1="53.2012" x2="151.224" y2="201.682" gradientUnits="userSpaceOnUse">
<stop stop-color="#B5A8E3"/>
<stop offset="1" stop-color="#171649"/>
</linearGradient>
<linearGradient id="paint1_linear_2513_4942" x1="391.305" y1="50.6807" x2="391.305" y2="204.212" gradientUnits="userSpaceOnUse">
<stop stop-color="#B5A8E3"/>
<stop offset="1" stop-color="#171649"/>
</linearGradient>
<linearGradient id="paint2_linear_2513_4942" x1="517.521" y1="0" x2="517.521" y2="201.682" gradientUnits="userSpaceOnUse">
<stop stop-color="#B5A8E3"/>
<stop offset="1" stop-color="#171649"/>
</linearGradient>
<linearGradient id="paint3_linear_2513_4942" x1="648.156" y1="0" x2="648.156" y2="204.214" gradientUnits="userSpaceOnUse">
<stop stop-color="#B5A8E3"/>
<stop offset="1" stop-color="#171649"/>
</linearGradient>
<linearGradient id="paint4_linear_2513_4942" x1="847.627" y1="50.6807" x2="847.627" y2="204.212" gradientUnits="userSpaceOnUse">
<stop stop-color="#B5A8E3"/>
<stop offset="1" stop-color="#171649"/>
</linearGradient>
<linearGradient id="paint5_linear_2513_4942" x1="1030.02" y1="50.6689" x2="1030.02" y2="201.681" gradientUnits="userSpaceOnUse">
<stop stop-color="#B5A8E3"/>
<stop offset="1" stop-color="#171649"/>
</linearGradient>
<linearGradient id="paint6_linear_2513_4942" x1="1194.41" y1="50.6807" x2="1194.41" y2="204.212" gradientUnits="userSpaceOnUse">
<stop stop-color="#B5A8E3"/>
<stop offset="1" stop-color="#171649"/>
</linearGradient>
</defs>
</svg>
