<?xml version="1.0" encoding="UTF-8"?>
<svg id="Vrstva_1" data-name="Vrstva 1" xmlns="http://www.w3.org/2000/svg" viewBox="0 0 1500 464.61">
  <defs>
    <style>
      .cls-1 {
        fill: #171649;
      }
    </style>
  </defs>
  <polygon class="cls-1" points="1287.6 220.86 1287.68 220.79 1287.6 220.7 1287.6 220.86"/>
  <polygon class="cls-1" points="271.07 74.41 229.74 171.62 191.2 74.41 147.51 74.41 108.97 171.84 67.64 74.41 26.74 74.41 83.49 200.53 132.31 200.53 169.36 112.74 206.4 200.53 255.23 200.53 311.97 74.41 271.07 74.41"/>
  <path class="cls-1" d="M396.29,72.27c-51.18,0-87.37,18.84-87.37,65.31s37.26,65.1,85.23,65.1,77.95-15.2,86.3-47.32h-36.4c-9.21,12.85-24.63,17.56-49.89,17.56s-43.68-6.64-47.75-26.77h136.19c0-57.39-38.33-73.88-86.3-73.88ZM347.68,122.8c5.78-17.77,23.34-22.7,48.4-22.7,23.13,0,41.11,4.92,47.32,22.7h-95.72Z"/>
  <rect class="cls-1" x="496.49" y="29.22" width="36.62" height="171.31"/>
  <path class="cls-1" d="M688.75,94.11c-13.7-14.35-35.76-21.84-62.96-21.84-40.47,0-75.16,17.13-75.16,65.31s34.69,65.1,75.16,65.1c27.2,0,49.25-7.49,62.96-21.84v19.7h36.62V29.22h-36.62v64.88ZM638,172.06c-32.76,0-50.54-9.64-50.54-34.48s17.77-34.69,50.54-34.69,50.75,9.64,50.75,34.69-17.99,34.48-50.75,34.48Z"/>
  <path class="cls-1" d="M826.64,72.27c-51.18,0-87.37,18.84-87.37,65.31s37.26,65.1,85.22,65.1,77.95-15.2,86.3-47.32h-36.4c-9.21,12.85-24.63,17.56-49.89,17.56s-43.68-6.64-47.75-26.77h136.19c0-57.39-38.33-73.88-86.3-73.88ZM778.03,122.8c5.78-17.77,23.34-22.7,48.4-22.7,23.13,0,41.11,4.92,47.32,22.7h-95.72Z"/>
  <path class="cls-1" d="M967.07,124.94c22.27-17.35,45.83-22.06,66.38-22.06,10.71,0,20.34,1.29,32.34,4.28v-30.62c-8.57-2.14-19.06-4.28-34.05-4.28-23.56,0-45.83,6.64-64.67,23.55v-21.41h-36.62v126.13h36.62v-75.59Z"/>
  <path class="cls-1" d="M1125.09,202.68c29.77,0,54.39-6.85,76.66-17.77v15.63h36.83v-63.6c-.43-47.75-30.4-64.67-83.08-64.67-26.34,0-51.61,4.71-77.3,13.06l13.06,26.77c25.91-7.71,46.04-9.21,62.53-9.21s47.97,1.93,47.97,25.91c-16.49-5.57-36.4-8.99-58.03-8.99-40.04,0-76.02,10.28-76.02,43.04,0,28.48,22.06,39.83,57.39,39.83ZM1148.22,143.79c23.34,0,40.69,3.64,53.53,7.71v9.85c-18.84,8.14-46.25,14.35-66.17,14.35s-31.26-1.07-31.26-14.35,16.49-17.56,43.9-17.56Z"/>
  <polygon class="cls-1" points="1411.08 128.49 1316.48 223.09 1316.48 89.28 1283.98 89.28 1283.98 191.43 1316.29 223.27 1316.48 223.42 1336.85 243.51 1339.49 246.07 1434.09 151.46 1411.08 128.49"/>
  <polygon class="cls-1" points="1473.26 246.07 1339.49 246.07 1316.48 246.07 1306.95 246.07 1293.5 246.07 1283.98 246.07 1260.97 246.07 930.46 246.07 930.46 278.6 1260.97 278.6 1166.37 373.2 1189.38 396.18 1283.98 301.57 1283.98 435.38 1316.48 435.38 1316.48 301.57 1411.08 396.18 1434.09 373.2 1339.49 278.6 1473.26 278.6 1473.26 246.07"/>
</svg>