<?xml version="1.0" encoding="UTF-8"?>
<svg id="Vrstva_1" xmlns="http://www.w3.org/2000/svg" version="1.1" viewBox="0 0 1500 259.15">
  <!-- Generator: Adobe Illustrator 29.6.1, SVG Export Plug-In . SVG Version: 2.1.1 Build 9)  -->
  <defs>
    <style>
      .st0 {
        fill: #fff;
      }
    </style>
  </defs>
  <polygon class="st0" points="302.71 67.28 252.63 185.09 205.92 67.28 152.98 67.28 106.27 185.35 56.19 67.28 6.62 67.28 75.39 220.13 134.56 220.13 179.45 113.73 224.34 220.13 283.51 220.13 352.27 67.28 302.71 67.28"/>
  <path class="st0" d="M454.45,64.69c-62.02,0-105.88,22.84-105.88,79.15s45.15,78.89,103.28,78.89,94.46-18.42,104.58-57.35h-44.11c-11.16,15.57-29.84,21.28-60.46,21.28s-52.94-8.05-57.87-32.44h165.04c0-69.55-46.45-89.53-104.58-89.53ZM395.54,125.93c7.01-21.54,28.29-27.51,58.65-27.51,28.03,0,49.82,5.97,57.35,27.51h-116Z"/>
  <rect class="st0" x="575.88" y="12.53" width="44.37" height="207.6"/>
  <path class="st0" d="M808.86,91.16c-16.61-17.39-43.34-26.47-76.29-26.47-49.04,0-91.08,20.76-91.08,79.15s42.04,78.89,91.08,78.89c32.96,0,59.68-9.08,76.29-26.47v23.88h44.37V12.53h-44.37v78.63ZM747.36,185.62c-39.7,0-61.24-11.68-61.24-41.78s21.54-42.04,61.24-42.04,61.5,11.68,61.5,42.04-21.8,41.78-61.5,41.78Z"/>
  <path class="st0" d="M975.96,64.69c-62.02,0-105.87,22.84-105.87,79.15s45.15,78.89,103.28,78.89,94.46-18.42,104.58-57.35h-44.11c-11.16,15.57-29.84,21.28-60.46,21.28s-52.94-8.05-57.87-32.44h165.04c0-69.55-46.45-89.53-104.58-89.53ZM917.06,125.93c7.01-21.54,28.28-27.51,58.65-27.51,28.03,0,49.82,5.97,57.35,27.51h-116Z"/>
  <path class="st0" d="M1146.14,128.52c26.99-21.02,55.53-26.73,80.45-26.73,12.98,0,24.65,1.56,39.18,5.19v-37.11c-10.38-2.6-23.1-5.19-41.26-5.19-28.54,0-55.53,8.04-78.37,28.54v-25.95h-44.37v152.85h44.37v-91.6Z"/>
  <path class="st0" d="M1337.64,222.72c36.07,0,65.91-8.3,92.9-21.54v18.94h44.63v-77.07c-.52-57.87-36.85-78.37-100.68-78.37-31.92,0-62.54,5.71-93.68,15.83l15.83,32.43c31.4-9.34,55.79-11.16,75.77-11.16s58.13,2.34,58.13,31.4c-19.98-6.75-44.11-10.9-70.32-10.9-48.52,0-92.12,12.46-92.12,52.16,0,34.52,26.73,48.27,69.54,48.27ZM1365.66,151.36c28.29,0,49.3,4.41,64.87,9.34v11.94c-22.84,9.86-56.05,17.39-80.18,17.39s-37.89-1.3-37.89-17.39,19.98-21.28,53.19-21.28Z"/>
</svg>